<svg version="1.2" xmlns="http://www.w3.org/2000/svg" viewBox="0 0 544 544" width="544" height="544">
	<title>DDS-svg</title>
	<style>
		.s0 { fill: #00a79d } 
	</style>
	<g id="Layer">
		<path id="Layer" fill-rule="evenodd" class="s0" d="m-181 577.2c10.5-1.7 24.1-2.7 38.3-2.7 23.9 0 39.5 4.4 51.5 13.5 13 9.7 21.2 25.1 21.2 47.3 0 24.1-8.7 40.7-20.7 50.9-13.3 11-33.5 16.3-58 16.3-14.8 0-25.3-0.9-32.3-1.9zm28.4 102.6c2.5 0.5 6.4 0.5 9.9 0.5 25.7 0.2 42.6-14 42.6-44.1 0.1-26.1-15.2-39.8-39.6-39.8-6.2 0-10.4 0.5-12.9 1.1v82.3z"/>
		<path id="Layer" class="s0" d="m-51.5 640c0-13.4-0.2-22.3-0.7-30.1h24.4l1 16.9h0.7c4.7-13.4 15.8-19 24.6-19 2.6 0 4 0.1 6.1 0.6v26.7c-2.2-0.5-4.5-0.8-7.7-0.8-10.4 0-17.5 5.5-19.4 14.4-0.4 1.8-0.6 4-0.6 6.3v46.2h-28.4v-61.2z"/>
		<path id="Layer" class="s0" d="m48.2 584.5c0.1 7.9-5.8 14.2-15.2 14.2-9.5 0-14.8-6.3-14.8-14.2 0-8.1 5.9-14.2 15-14.2 9.1 0 14.9 6.1 15 14.2zm-29.2 116.7v-91.3h28.4v91.3z"/>
		<path id="Layer" class="s0" d="m91.3 609.9l12.3 42.4c2.2 7.7 3.8 14.9 5.2 22.2h0.6c1.4-7.5 3-14.3 5.1-22.2l11.7-42.4h29.8l-34 91.3h-28.3l-33.2-91.3c0 0 30.8 0 30.8 0z"/>
		<path id="Layer" fill-rule="evenodd" class="s0" d="m188 664.6c0.9 11.8 12.5 17.4 25.8 17.4 9.6 0 17.4-1.3 25.1-3.9l3.8 19.3c-9.4 3.8-20.8 5.7-33 5.7-31 0-48.7-18-48.7-46.4 0-23.2 14.4-48.9 46-48.9 29.6 0 40.7 23 40.7 45.6 0 4.9-0.5 9.1-1 11.2zm33.3-19.4c0.1-6.8-3-18.5-15.9-18.5-12 0-16.8 11-17.6 18.5 0 0 33.6 0 33.5 0z"/>
		<path id="Layer" class="s0" d="m304.3 671.8c7.5 4.1 19.3 7.9 31.5 7.9 13 0 19.9-5.4 19.9-13.7 0-7.7-6-12.2-21-17.5-21-7.5-34.7-18.9-34.7-37.3 0-21.4 18-37.7 47.6-37.7 14.3 0 24.7 2.9 32.1 6.3l-6.3 22.8c-5-2.4-14-5.9-26.2-5.9-12.2 0-18.3 5.7-18.3 12.1 0 8 6.9 11.5 23.3 17.7 22.2 8.3 32.5 19.9 32.5 37.6 0 21-16.1 39-50.7 39-14.2 0-28.5-3.8-35.5-7.8l5.8-23.5z"/>
		<path id="Layer" fill-rule="evenodd" class="s0" d="m456.5 701.2l-1.7-9.1h-0.6c-6 7.3-15.3 11.1-26.1 11.1-18.6 0-29.5-13.3-29.5-27.9 0-23.8 21.3-35.1 53.6-35v-1.2c0-4.8-2.6-11.8-16.7-11.7-9.3 0-19.1 3.1-25.2 6.8l-5.2-18.2c6.3-3.6 18.8-8.2 35.5-8.2 30.4 0 40 18 40 39.4v31.9c0 8.7 0.4 16.9 1.4 22.1h-25.5zm-3.5-43.2c-14.9-0.1-26.4 3.5-26.4 14.4 0 7.3 4.8 10.9 11.2 10.9 7 0 12.8-4.6 14.7-10.5 0.4-1.5 0.5-3.2 0.5-4.8v-10z"/>
		<path id="Layer" class="s0" d="m503 568.8h28.4v132.4h-28.4z"/>
		<path id="Layer" fill-rule="evenodd" class="s0" d="m576.1 664.6c0.9 11.8 12.5 17.4 25.8 17.4 9.6 0 17.4-1.3 25.1-3.9l3.8 19.3c-9.4 3.8-20.8 5.7-33.1 5.7-30.9 0-48.6-18-48.6-46.4 0-23.2 14.4-48.9 46-48.9 29.6 0 40.7 23 40.7 45.6 0 4.9-0.5 9.1-1 11.2zm33.3-19.4c0.1-6.8-3-18.5-15.9-18.5-12 0-16.8 11-17.6 18.5z"/>
		<path id="Layer" class="s0" d="m645.3 684.9l28.8-35.9c5.1-6.1 9.2-10.7 14.4-16.2v-0.4h-40v-22.5h74.7l-0.1 17.1-27.5 34.5c-4.9 5.9-9.7 11.7-14.9 16.8v0.4h43.9v22.5h-79.3z"/>
	</g>
	<g id="Layer">
		<g id="Layer">
			<path id="Layer" class="s0" d="m281.1 25.5c74.3 4 139.3 40.2 179.1 94l-104.9 45.9 31.8 33.4 87.2-57.8c17.4 30.5 27.3 65.4 27.3 102.5h20.1c0-130.8-113.9-237.1-254-237.1-140.2 0-254.1 106.3-254.1 237.1h20.1c0-37.1 9.9-72 27.4-102.5l122.8 84.8-11.4-62-97.4-44.3c39.8-53.8 104.8-90 179.1-94"/>
			<path id="Layer" class="s0" d="m528.1 249.8h-32.8v-6.4c0-32.3-8.1-64.4-23.3-93.3l-85.9 57-41.7-43.9 105.8-46.3c-40.4-50.6-101.7-81.5-169.4-85.1l0.7-12.7c74.3 4 141.3 39.2 183.8 96.6l4.8 6.4-104 45.5 21.9 23 88.4-58.7 3.4 5.9c17.4 30.5 27 64.7 28.1 99.3h7.4c-3.6-124.3-113.3-224.4-247.6-224.4-134.4 0-244.1 100.1-247.7 224.4h7.4c1.1-34.6 10.7-68.8 28.1-99.3l3.5-6 115.9 80-8.1-43.6-101.5-46.2 4.7-6.3c42.5-57.4 109.5-92.6 183.9-96.6l0.6 12.7c-67.8 3.6-129.1 34.5-169.5 85.2l93.2 42.4 14.7 80.4-129.7-89.6c-15.1 28.8-23.1 60.9-23.1 93.2v6.4h-32.9v-6.4c0-134.2 116.8-243.4 260.5-243.4 143.6 0 260.4 109.2 260.4 243.5v6.3z"/>
		</g>
		<g id="Layer">
			<path id="Layer" class="s0" d="m254.2 504.3c-74.3-3.9-139.3-40.2-179.1-94l104.9-45.9-31.9-27.1-87 51.5c-17.5-30.5-27.4-65.4-27.4-102.4h-20.1c0 130.7 114 237.1 254.1 237.1 140.1 0 254.1-106.4 254.1-237.1h-20.2c0 37-9.9 71.9-27.3 102.4l-94.9-65.5-11.5 45 92.3 42c-39.8 53.8-104.8 90.1-179.1 94"/>
			<path id="Layer" class="s0" d="m267.7 529.8c-143.6 0-260.5-109.2-260.5-243.5v-6.3h32.9v6.3c0 32.5 8 64.7 23.4 93.7l85.2-50.5 43.2 36.6-106.8 46.8c40.4 50.6 101.7 81.4 169.4 85l-0.6 12.7c-74.4-3.9-141.4-39.1-183.9-96.5l-4.8-6.4 102.9-45.1-20.7-17.5-88.6 52.5-3.2-5.6c-17.4-30.5-27.1-64.7-28.2-99.3h-7.4c3.7 124.3 113.4 224.4 247.7 224.4 134.3 0 244-100.1 247.6-224.4h-7.4c-1 34.6-10.7 68.8-28.1 99.3l-3.4 6-93.1-64.3-7.9 31 94.6 43-4.6 6.4c-42.6 57.4-109.6 92.6-183.9 96.5l-0.7-12.7c67.8-3.6 129.1-34.5 169.5-85.1l-89.9-41 15.1-58.9 96.6 66.7c15.2-28.9 23.2-61 23.2-93.3v-6.3h32.8v6.3c0 134.3-116.8 243.5-260.4 243.5z"/>
		</g>
		<g id="Layer">
			<path id="Layer" class="s0" d="m280.4 22.7h28.9v486.8h-28.9z"/>
			<path id="Layer" fill-rule="evenodd" class="s0" d="m310.9 511.1h-32.1v-490h32.1zm-28.9-3.2h25.7v-483.7h-25.7z"/>
		</g>
		<g id="Layer">
			<path id="Layer" class="s0" d="m129.7 374l43.3-18.9c11.9 7.3 23.3 11.7 30.5 15.4q10.7 5.6 25.7 9.1 14.9 3.5 35.9 3.5 33.6 0 51.4-13 17.7-13.1 17.7-30.4v-5.8q0-16.8-10.5-26.6-10.5-9.7-39.4-18.6l-48.1-15.1q-77-23.5-77-78.5v-10.2q0-21.2 13.7-39.4 13.8-18.2 40.4-29.1 26.6-10.8 62.6-10.8 35.9 0 63.9 10.2c18.7 6.8 53.6 28.2 64.2 44.4l-41.6 14.3c-14.9-10.6-29.1-16-41.3-20.1q-18.2-6.2-42.9-6.2-29.4 0-44.8 10.8-15.4 10.9-15.4 25.5v7.5q0 12 12.4 21.8 12.3 9.7 39.9 17.7l43.4 13.3q37.3 11.1 58.1 30.6 20.7 19.5 20.8 52.8v12q-0.1 25.7-15.9 45.6-15.9 20-44.1 30.8-28.3 10.9-64.7 10.9c-51 0-113.3-24.8-138.2-53.5z"/>
			<path id="Layer" fill-rule="evenodd" class="s0" d="m267.9 429.1c-50.2 0-114-24.8-139.4-54l-1.4-1.7 46.1-20.1 0.7 0.4c8 5 16 8.7 22.4 11.6 3 1.4 5.7 2.6 7.9 3.8 7 3.6 15.6 6.6 25.3 9 9.8 2.3 21.8 3.5 35.6 3.5 22 0 38.9-4.3 50.4-12.8 11.4-8.4 17.1-18.2 17.1-29.1v-5.8c0-10.7-3.3-19.2-10-25.4-6.8-6.3-19.8-12.5-38.8-18.3l-48.1-15c-51.8-15.9-78.1-42.8-78.1-80v-10.2c0-14.5 4.7-28.1 14.1-40.5 9.3-12.3 23.1-22.2 41-29.5 17.9-7.3 39.1-11 63.2-11 24 0 45.7 3.4 64.4 10.3 18.6 6.7 54 28.1 65 45l1.1 1.7-44.2 15.3-0.7-0.5c-14.8-10.6-28.9-15.8-40.9-19.9-11.9-4.1-26.2-6.2-42.4-6.2-19.2 0-33.9 3.6-43.9 10.6-9.9 7-14.7 14.9-14.7 24.2v7.6c0 7.4 3.9 14.3 11.7 20.4 8.1 6.4 21.3 12.3 39.4 17.5l43.4 13.3c25 7.4 44.8 17.8 58.8 31 14.1 13.2 21.2 31.4 21.2 53.9v12c0 17.4-5.4 33.1-16.2 46.6-10.7 13.5-25.8 24-44.8 31.3-18.9 7.3-40.8 11-65.2 11zm-135.5-54.5q0 0 0 0zm135.5 51.3c24 0 45.5-3.6 64.1-10.8 18.4-7.1 33.1-17.3 43.4-30.3 10.3-12.9 15.6-28 15.6-44.7v-11.9c0-21.6-6.9-39-20.3-51.6-13.6-12.8-33-23-57.5-30.3l-43.4-13.3c-18.5-5.3-32.1-11.4-40.4-18-8.7-6.8-13-14.5-13-22.9v-7.6c0-10.2 5.4-19.2 16.1-26.8 10.5-7.4 25.8-11.1 45.7-11.1 16.6 0 31.2 2.1 43.4 6.3 12.1 4.1 26.1 9.3 41.1 19.8l38.8-13.3c-11.6-15.6-44.5-35.7-62.2-42.1-18.5-6.7-39.8-10.1-63.4-10.1-23.7 0-44.5 3.6-62 10.7-17.4 7.2-30.7 16.7-39.7 28.6-8.9 11.8-13.5 24.7-13.5 38.5v10.2c0 35.7 25.6 61.6 75.9 76.9l48.1 15.1c19.5 6 32.9 12.4 40.1 19 7.3 6.8 11 16.1 11 27.8v5.7c0 12-6.2 22.7-18.4 31.7-12 8.8-29.6 13.4-52.3 13.4-14.1 0-26.3-1.3-36.3-3.6-10-2.4-18.8-5.5-26-9.3-2.3-1.1-4.9-2.3-7.9-3.7-6.3-2.8-14-6.4-22-11.3l-40.5 17.7c25.8 28 87.1 51.3 135.5 51.3z"/>
		</g>
		<g id="Layer">
			<path id="Layer" class="s0" d="m232.5 17.7h28.9v491.8h-28.9z"/>
			<path id="Layer" fill-rule="evenodd" class="s0" d="m263 511.1h-32.1v-495h32.1zm-28.9-3.2h25.7v-488.7h-25.7z"/>
		</g>
	</g>
</svg>