<?xml version="1.0" encoding="UTF-8"?>
<svg id="Layer_1" data-name="Layer 1" xmlns="http://www.w3.org/2000/svg" viewBox="0 0 905.58 703.22">
  <g>
    <path d="m0,577.2c10.46-1.7,24.08-2.7,38.32-2.7,23.85,0,39.43,4.4,51.47,13.49,13.06,9.75,21.25,25.08,21.25,47.3,0,24.09-8.71,40.74-20.79,50.92-13.22,11.02-33.47,16.28-57.97,16.28-14.77,0-25.3-.89-32.28-1.85v-123.42Zm28.38,102.57c2.48.46,6.45.49,9.91.49,25.74.22,42.66-14,42.66-44.05.06-26.12-15.23-39.85-39.67-39.85-6.21,0-10.39.53-12.91,1.09v82.32Z" style="fill: #00a79d;"/>
    <path d="m129.52,639.98c0-13.4-.24-22.23-.75-30.09h24.38l1.03,16.9h.7c4.69-13.35,15.79-18.95,24.64-18.95,2.62,0,3.95.07,6.06.53v26.69c-2.2-.46-4.49-.79-7.67-.79-10.42,0-17.54,5.53-19.45,14.41-.36,1.8-.53,4.01-.53,6.32v46.18h-28.42v-61.19Z" style="fill: #00a79d;"/>
    <path d="m229.24,584.55c.04,7.9-5.8,14.17-15.25,14.17s-14.81-6.27-14.77-14.17c-.04-8.11,5.92-14.21,15.02-14.21s14.89,6.07,15,14.21Zm-29.22,116.62v-91.28h28.42v91.28h-28.42Z" style="fill: #00a79d;"/>
    <path d="m272.29,609.89l12.28,42.45c2.22,7.7,3.8,14.89,5.23,22.2h.6c1.4-7.53,2.97-14.36,5.05-22.2l11.71-42.45h29.84l-33.99,91.28h-28.31l-33.18-91.28h30.78Z" style="fill: #00a79d;"/>
    <path d="m369.04,664.65c.85,11.78,12.48,17.37,25.73,17.37,9.6,0,17.46-1.29,25.12-3.87l3.83,19.2c-9.44,3.85-20.83,5.77-33.07,5.77-30.92,0-48.68-18.01-48.68-46.45,0-23.19,14.46-48.84,46.01-48.84,29.58,0,40.76,22.99,40.76,45.58,0,4.94-.51,9.14-1.01,11.24h-58.67Zm33.31-19.44c.05-6.83-3-18.5-15.91-18.5-11.99,0-16.85,10.95-17.63,18.5h33.55Z" style="fill: #00a79d;"/>
    <path d="m485.26,671.83c7.53,4.04,19.35,7.89,31.51,7.89,13.05,0,19.97-5.42,19.97-13.69,0-7.72-5.99-12.27-21.04-17.57-20.97-7.44-34.67-18.86-34.67-37.22,0-21.43,17.99-37.73,47.55-37.73,14.33,0,24.68,2.85,32.1,6.33l-6.28,22.79c-4.99-2.38-14.03-5.97-26.24-5.97s-18.28,5.73-18.28,12.16c0,7.98,6.96,11.51,23.27,17.67,22.25,8.32,32.56,19.87,32.56,37.64,0,20.99-16.07,39-50.67,39-14.25,0-28.5-3.87-35.5-7.81l5.75-23.48Z" style="fill: #00a79d;"/>
    <path d="m637.45,701.17l-1.67-9.07h-.6c-5.95,7.27-15.27,11.12-26.07,11.12-18.58,0-29.5-13.34-29.5-27.93,0-23.78,21.27-35.05,53.57-35.01v-1.16c0-4.85-2.61-11.78-16.72-11.76-9.3,0-19.08,3.16-25.16,6.81l-5.22-18.16c6.36-3.64,18.8-8.18,35.48-8.18,30.39,0,40,17.96,40,39.39v31.83c0,8.7.46,16.98,1.45,22.11h-25.55Zm-3.44-43.16c-14.93-.08-26.47,3.52-26.47,14.38,0,7.35,4.81,10.93,11.27,10.93,6.94,0,12.81-4.63,14.68-10.49.43-1.47.53-3.23.53-4.85v-9.98Z" style="fill: #00a79d;"/>
    <path d="m683.99,568.76h28.42v132.41h-28.42v-132.41Z" style="fill: #00a79d;"/>
    <path d="m757.14,664.65c.84,11.78,12.48,17.37,25.73,17.37,9.6,0,17.46-1.29,25.12-3.87l3.83,19.2c-9.44,3.85-20.83,5.77-33.07,5.77-30.92,0-48.68-18.01-48.68-46.45,0-23.19,14.46-48.84,46.01-48.84,29.58,0,40.76,22.99,40.76,45.58,0,4.94-.51,9.14-1.01,11.24h-58.67Zm33.31-19.44c.05-6.83-3-18.5-15.92-18.5-11.99,0-16.84,10.95-17.63,18.5h33.55Z" style="fill: #00a79d;"/>
    <path d="m826.29,684.88l28.76-35.93c5.19-6.07,9.28-10.65,14.45-16.14v-.41h-40.03v-22.5h74.69l-.03,17.08-27.51,34.55c-4.97,5.9-9.7,11.62-14.89,16.73v.41h43.84v22.5h-79.28v-16.29Z" style="fill: #00a79d;"/>
  </g>
  <g>
    <g>
      <path d="m462.13,25.52c74.29,3.94,139.28,40.22,179.11,93.99l-104.95,45.94,31.78,33.39,87.19-57.86c17.45,30.56,27.37,65.43,27.37,102.48h20.12c0-130.74-113.98-237.1-254.09-237.1s-254.09,106.36-254.09,237.1h20.12c0-37.05,9.92-71.92,27.37-102.48l122.83,84.86-11.4-61.99-97.41-44.33c39.82-53.77,104.81-90.05,179.11-93.99" style="fill: #00a79d;"/>
      <path d="m709.11,249.81h-32.84v-6.36c0-32.33-8.02-64.46-23.26-93.36l-85.88,56.99-41.71-43.83,105.81-46.32c-40.41-50.6-101.71-81.48-169.45-85.08l.67-12.7c74.33,3.94,141.36,39.13,183.88,96.56l4.75,6.41-103.94,45.5,21.84,22.95,88.42-58.67,3.37,5.91c17.39,30.46,27.05,64.66,28.11,99.27h7.41c-3.63-124.3-113.32-224.38-247.64-224.38s-244.01,100.08-247.64,224.38h7.41c1.06-34.62,10.72-68.81,28.11-99.27l3.44-6.02,115.88,80.06-8.02-43.61-101.54-46.22,4.68-6.32c42.53-57.42,109.55-92.62,183.88-96.56l.67,12.7c-67.78,3.59-129.11,34.51-169.52,85.17l93.15,42.39,14.78,80.38-129.68-89.59c-15.19,28.86-23.19,60.95-23.19,93.24v6.36h-32.84v-6.36C188.21,109.21,305.05,0,448.66,0s260.45,109.21,260.45,243.46v6.36Z" style="fill: #00a79d;"/>
    </g>
    <g>
      <path d="m435.19,504.29c-74.29-3.94-139.28-40.22-179.11-93.99l104.95-45.94-31.95-27.04-87.02,51.52c-17.45-30.56-27.37-65.43-27.37-102.48h-20.12c0,130.74,113.98,237.1,254.09,237.1,140.11,0,254.09-106.36,254.09-237.1h-20.12c0,37.05-9.92,71.92-27.37,102.48l-94.84-65.52-11.54,44.95,92.36,42.04c-39.82,53.77-104.81,90.05-179.11,93.99" style="fill: #00a79d;"/>
      <path d="m448.66,529.81c-143.61,0-260.45-109.21-260.45-243.46v-6.36h32.84v6.36c0,32.45,8.08,64.69,23.42,93.67l85.27-50.48,43.19,36.55-106.84,46.77c40.41,50.6,101.71,81.48,169.45,85.08l-.67,12.7c-74.34-3.94-141.36-39.13-183.88-96.56l-4.75-6.41,102.91-45.05-20.71-17.53-88.68,52.5-3.2-5.61c-17.39-30.46-27.05-64.65-28.11-99.28h-7.41c3.63,124.3,113.32,224.38,247.64,224.38s244.01-100.08,247.64-224.38h-7.41c-1.06,34.62-10.72,68.82-28.11,99.28l-3.44,6.02-93.03-64.28-7.95,30.95,94.66,43.08-4.68,6.32c-42.53,57.42-109.55,92.62-183.89,96.56l-.67-12.7c67.78-3.59,129.11-34.51,169.53-85.17l-89.93-40.93,15.14-58.95,96.54,66.7c15.2-28.86,23.2-60.95,23.2-93.24v-6.36h32.84v6.36c0,134.24-116.84,243.46-260.45,243.46Z" style="fill: #00a79d;"/>
    </g>
    <g>
      <rect x="461.4" y="22.66" width="28.89" height="486.86" style="fill: #00a79d;"/>
      <path d="m491.88,511.11h-32.07V21.07h32.07v490.04Zm-28.89-3.18h25.71V24.25h-25.71v483.68Z" style="fill: #00a79d;"/>
    </g>
    <g>
      <path d="m310.73,374.02l43.3-18.96c11.82,7.39,23.31,11.75,30.47,15.44,7.16,3.7,15.71,6.73,25.67,9.09,9.96,2.37,21.94,3.55,35.94,3.55,22.4,0,39.52-4.36,51.34-13.08,11.82-8.71,17.74-18.84,17.74-30.37v-5.76c0-11.23-3.5-20.1-10.5-26.6-7-6.5-20.15-12.71-39.44-18.62l-48.08-15.08c-51.34-15.66-77.01-41.82-77.01-78.48v-10.2c0-14.19,4.58-27.34,13.77-39.46,9.18-12.12,22.64-21.8,40.37-29.04,17.74-7.24,38.58-10.86,62.55-10.86s45.28,3.4,63.94,10.2c18.67,6.8,53.6,28.23,64.17,44.37l-41.54,14.33c-14.94-10.64-29.16-15.99-41.29-20.13-12.14-4.14-26.45-6.21-42.94-6.21-19.61,0-34.54,3.62-44.81,10.86-10.27,7.25-15.4,15.74-15.4,25.5v7.54c0,7.98,4.12,15.23,12.37,21.73,8.24,6.51,21.54,12.42,39.91,17.74l43.41,13.3c24.89,7.39,44.26,17.59,58.11,30.6,13.84,13.01,20.77,30.59,20.77,52.76v11.97c0,17.15-5.3,32.37-15.87,45.67-10.58,13.3-25.28,23.58-44.11,30.82-18.83,7.24-40.37,10.86-64.64,10.86-51.04,0-113.38-24.84-138.19-53.46Z" style="fill: #00a79d;"/>
      <path d="m448.91,429.07c-50.18,0-114.01-24.73-139.39-54.01l-1.41-1.63,46.05-20.16.71.45c8.03,5.02,15.99,8.66,22.39,11.6,3,1.38,5.7,2.61,7.97,3.78,7,3.62,15.52,6.63,25.31,8.96,9.77,2.32,21.74,3.5,35.58,3.5,21.95,0,38.91-4.3,50.4-12.77,11.34-8.36,17.09-18.15,17.09-29.09v-5.76c0-10.72-3.36-19.28-9.99-25.44-6.79-6.3-19.85-12.45-38.83-18.27l-48.09-15.08c-51.84-15.81-78.13-42.73-78.13-80v-10.2c0-14.48,4.74-28.08,14.09-40.42,9.3-12.29,23.11-22.23,41.04-29.56,17.85-7.29,39.1-10.98,63.15-10.98s45.72,3.46,64.49,10.29c18.56,6.76,53.93,28.16,64.95,45l1.12,1.71-44.24,15.27-.67-.48c-14.84-10.57-28.88-15.83-40.88-19.92-11.92-4.06-26.2-6.12-42.43-6.12-19.17,0-33.94,3.56-43.9,10.57-9.91,7-14.73,14.91-14.73,24.2v7.54c0,7.44,3.96,14.33,11.77,20.48,8.04,6.35,21.28,12.22,39.36,17.46l43.43,13.31c25,7.42,44.77,17.84,58.73,30.96,14.12,13.27,21.27,31.41,21.27,53.92v11.97c0,17.43-5.46,33.12-16.22,46.66-10.72,13.47-25.79,24.01-44.78,31.31-18.93,7.28-40.87,10.97-65.21,10.97Zm-135.54-54.47c25.77,27.97,87.08,51.3,135.54,51.3,23.95,0,45.5-3.62,64.07-10.76,18.46-7.1,33.08-17.3,43.44-30.32,10.3-12.96,15.53-27.99,15.53-44.68v-11.97c0-21.6-6.82-38.96-20.27-51.6-13.6-12.77-32.94-22.94-57.48-30.23l-43.42-13.31c-18.46-5.35-32.06-11.41-40.43-18.01-8.61-6.78-12.98-14.51-12.98-22.97v-7.54c0-10.25,5.41-19.26,16.08-26.8,10.5-7.4,25.89-11.15,45.73-11.15,16.58,0,31.2,2.12,43.46,6.3,12.03,4.11,26.1,9.37,41.03,19.87l38.78-13.38c-11.55-15.54-44.48-35.61-62.2-42.06-18.41-6.7-39.75-10.1-63.4-10.1s-44.48,3.62-61.95,10.75c-17.39,7.11-30.75,16.7-39.71,28.53-8.92,11.78-13.45,24.73-13.45,38.5v10.2c0,35.7,25.53,61.6,75.89,76.96l48.09,15.08c19.43,5.96,32.91,12.34,40.05,18.97,7.31,6.79,11.01,16.13,11.01,27.77v5.76c0,12.01-6.18,22.66-18.38,31.65-12.05,8.88-29.64,13.39-52.29,13.39-14.08,0-26.3-1.21-36.31-3.59-10.04-2.38-18.8-5.48-26.03-9.22-2.23-1.15-4.88-2.36-7.83-3.71-6.3-2.88-14.08-6.45-22.04-11.35l-40.53,17.74Z" style="fill: #00a79d;"/>
    </g>
    <g>
      <rect x="413.48" y="17.68" width="28.89" height="491.84" style="fill: #00a79d;"/>
      <path d="m443.96,511.11h-32.07V16.09h32.07v495.02Zm-28.89-3.18h25.71V19.27h-25.71v488.66Z" style="fill: #00a79d;"/>
    </g>
  </g>
</svg>